<mxfile host="app.diagrams.net" modified="2023-12-04T11:10:44.377Z" agent="Mozilla/5.0 (Windows NT 10.0; Win64; x64) AppleWebKit/537.36 (KHTML, like Gecko) Chrome/119.0.0.0 Safari/537.36 Edg/119.0.0.0" version="22.1.5" etag="DZH2KZJdtmjdR8KzBhmf" type="github">
  <diagram name="Page-1" id="wjoS7EhEi96-ieYxU28P">
    <mxGraphModel>
      <root>
        <mxCell id="0" />
        <mxCell id="1" parent="0" />
      </root>
    </mxGraphModel>
  </diagram>
</mxfile>
